<?xml version="1.0" encoding="utf-8"?>
<!-- Generator: Adobe Illustrator 16.0.0, SVG Export Plug-In . SVG Version: 6.00 Build 0)  -->
<!DOCTYPE svg PUBLIC "-//W3C//DTD SVG 1.1//EN" "http://www.w3.org/Graphics/SVG/1.1/DTD/svg11.dtd">
<svg version="1.1" id="OBJEKTS" xmlns="http://www.w3.org/2000/svg" xmlns:xlink="http://www.w3.org/1999/xlink" x="0px" y="0px"
	 width="500px" height="500px" viewBox="0 0 500 500" enable-background="new 0 0 500 500" xml:space="preserve">
<g>
	<path opacity="0.08" d="M172.565,366.449c-19.018,0.303-38.032,0.752-57.043,1.385c-22.339,0.744-40.206,3.119-54.58,21.259
		c-3.19,4.025-5.244,9.245-4.354,14.305c1.382,7.857,9.097,12.867,16.459,15.941c13.195,5.511,25.842,6.582,39.868,6.845
		c77.166,1.451,154.351,1.704,231.529,1.414c20.906-0.078,79.463,6.701,86.85-20.481c8.177-30.102-36.949-36.565-55.427-39.69
		c-20.851-3.526-44.091-0.96-65.219-1.158C264.622,365.837,218.589,365.715,172.565,366.449z"/>
	<path fill="#C4B5FD" d="M132.388,355.154c9.438,4.396,19.275,7.79,28.826,10.258c63.976,16.531,139.11,2.529,193.75-34.237
		c33.311-22.414,73.051-53.771,77.038-96.28c3.878-41.335-10.443-84.392-39.379-114.346c-19.114-19.789-34.729-46.987-60.413-59.023
		c-39.458-18.491-78.729-0.117-116.361,13.276c-26.564,9.454-53.539,19.121-76.348,35.698
		c-41.966,30.502-69.818,86.575-68.132,138.296c0.638,19.59,2.859,39.444,10.373,57.547
		C91.508,329.869,109.814,344.64,132.388,355.154z"/>
	<g>
		<path fill="#047857" d="M219.734,182.38c-1.005-1.447-2.239-2.654-3.074-4.234c-1.137-2.153,1.59-2.447,2.971-3.605
			c0.771-0.646,1.464-1.388,2.054-2.203c0.276-0.382,1.012-2.257,1.342-2.387c-3.952,1.548-8.691,0.88-12.061-1.701
			c3.836-1.036,7.288-3.438,9.593-6.674c-2.311-0.143-4.586-0.775-6.657-1.809c-0.813-0.406-1.769-0.844-2.501-1.379
			c-0.553-0.405-1.461-1.845-2.213-1.841c3.132-0.016,6.246-1.173,8.628-3.206c-2.648-0.688-5.101-2.09-7.065-3.99
			c-1.619-1.565-4.448-4.66-0.426-4.377c1.741,0.123,3.507-0.095,5.164-0.646c-3.992-2.007-7.721-4.539-11.061-7.508
			c2.186-0.134,4.343-0.716,6.3-1.699c-4.518-1.704-8.677-4.357-12.127-7.736c2.188-0.008,4.375-0.374,6.447-1.078
			c-2.94-1.574-5.619-3.63-7.916-6.047c-1.692-1.781-2.867-3.919-4.281-5.908c-0.935-1.315-0.916-1.382-1.631-0.122
			c-0.514,0.904-0.807,1.934-1.35,2.841c-2.202,3.678-5.835,6.517-9.994,7.613c2.013,1.551,4.757,2.107,7.215,1.462
			c-1.901,2.674-4.661,4.727-7.769,5.779c-1.677,0.568-3.493,0.873-4.933,1.903c-0.189,0.135,3.034,1.477,3.338,1.542
			c1.383,0.295,2.52,0.197,3.919-0.208c-2.493,4.167-6.937,7.109-11.747,7.776c2.127,1.621,4.997,2.224,7.596,1.596
			c-2.201,4.352-7.239,6.322-11.845,7.927c2.148,1.727,5.047,2.483,7.765,2.026c-2.484,3.759-7.379,4.921-11.802,5.782
			c3.079,1.885,7.006,2.317,10.421,1.146c-1.047,2.49-3.176,4.402-5.546,5.698c-2.371,1.296-4.995,2.042-7.594,2.779
			c0.336-0.095,2.534,1.387,3.025,1.569c1.264,0.467,2.595,0.752,3.938,0.849c2.254,0.162,4.111-0.753,6.191-1.526
			c0.357,0.001,0.287,0.567,0.081,0.859c-1.444,2.041-3.527,3.479-5.145,5.372c-2.035,2.381-4.058,4.772-6.091,7.155
			c-3.732,4.375-7.471,8.764-11.498,12.874c3.703,4.421,7.82,5.338,9.519,12.37c0.737,3.052,1.288,6.797,1.925,10.474h51.53
			c-0.778-2.169-1.557-4.337-2.334-6.506c4.789-0.929,9.577-1.858,14.366-2.787c2.128-0.413,4.253-0.77,6.35-1.564
			c0.892-0.338,1.799-0.407,2.695-0.75c0.374-0.143,2.687-2.259,2.84-2.034C230.801,198.177,225.254,190.329,219.734,182.38z"/>
		<path fill="#059669" d="M196.657,195.731c4.622-0.481,9.576-0.676,14.077-1.819c-6.106-3.265-12.706-6.029-16.521-12.189
			c2.902,0.657,6.138-0.512,7.95-2.872c-8.336-1.426-16.208-5.456-22.239-11.385c3.776-0.464,7.445-1.78,10.654-3.823
			c-4.935-1.001-11.353-2.679-15.434-5.87c3.408-1.146,6.787-2.375,10.129-3.703c0.6-0.238,0.992-0.857,1.055-1.465
			c-0.015,0.139-6.6-1.807-7.183-2.029c-1.008-0.384-6.093-2.051-5.934-3.288c1.67,0.287,3.441,0.034,5.117-0.097
			c1.755-0.138,3.51-0.323,5.229-0.71c0.791-0.179,1.106-0.785,1.063-1.407c-2.32-0.769-4.6-1.673-6.772-2.798
			c-1.1-0.569-2.171-1.194-3.203-1.878c-0.298-0.198-2.397-1.363-1.735-1.83c0.127-0.09,0.296-0.09,0.452-0.087
			c2.83,0.062,5.719-0.263,8.418-1.157c0.109-0.036,0.206-0.092,0.3-0.151c-1.161-0.514-2.307-1.081-3.426-1.75
			c-2.073-1.238-4.125-2.522-6.037-4.001c-0.984-0.761-1.933-1.573-2.805-2.461c-0.435-0.443-0.873-0.902-1.249-1.398
			c-0.155-0.205-0.914-0.92-0.938-1.096c-0.021-0.161,0.189-0.239,0.351-0.252c0.574-0.047,1.158-0.015,1.719-0.144
			c0.313-0.072,1.687-0.738,1.678-1.151c-0.007-0.378-1.341-0.937-1.677-1.156c-1.403-0.916-2.711-1.972-3.936-3.114
			c-2.416-2.255-4.503-4.841-6.414-7.529c-1.904-2.678-3.529-5.535-4.733-8.597c-0.115-0.293-0.214-0.59-0.314-0.887
			c-0.091-0.016-0.183-0.023-0.274-0.027c-2.452,4.684-5.854,8.905-9.412,12.754c-2.656,2.873-5.403,5.602-8.523,7.976
			c-1.378,1.048-2.801,2.114-4.304,2.977c-0.851,0.488-1.801,0.863-2.682,1.334c-0.507,0.928-0.169,2.256,1.208,2.204
			c1.16-0.043,2.31-0.025,3.45-0.006c-2.468,1.783-5.09,3.356-7.743,4.91c-1.09,0.638-0.909,2.43,0.358,2.742
			c2.066,0.509,4.31,0.969,6.582,1.207c-0.778,0.472-1.585,0.922-2.412,1.386c-2.965,1.667-5.955,3.291-8.959,4.887
			c-0.974,0.518-0.98,2.075,0,2.59c2.289,1.205,4.68,1.938,7.099,2.22c-5.088,3.445-10.893,5.832-16.942,6.92
			c0.916-0.165,3.355,1.246,4.5,1.368c2.122,0.227,3.776-0.427,5.798-0.738c2.187-0.337,6.384-0.839,8.504,0.127
			c-12.778,6.871-30.184,19-43.146,26.099c5.535,3.546,11.69,4.282,14.229,9.922c1.102,2.448,1.925,5.451,2.877,8.4h77.03
			c-1.163-1.74-2.326-3.479-3.489-5.219C178.851,198.875,194.601,195.945,196.657,195.731z"/>
		<path fill="#059669" d="M445.8,283.165c-5.857-5.804-7.916-10.932,0.708-23.82c8.386-12.531,2.322-32.956-14.884-34.685
			c-6.397-0.642-13.758-3.751-12.118-11.753c0.969-4.725,4.619-8.366,8.064-11.741c3.446-3.375,7.035-7.115,7.814-11.875
			c1.235-7.551-4.436-10.587-7.483-16.243c-2.956-5.486-2.291-11.789-0.763-17.624c1.766-6.744,4.263-13.917,1.891-20.471
			c-2.844-7.856-12.253-13.357-11.529-21.681c0.286-3.298,2.239-6.364,2.058-9.669c-1.057-19.224-24.082-23.241-26.003-2.408
			c-0.626,6.783,1.165,13.52,2.357,20.227c1.192,6.707,1.73,13.912-1.196,20.064c-3.552,7.469-11.39,11.808-16.773,18.086
			c-5.472,6.382-8.314,14.864-8.214,23.271c0.116,9.607,3.877,19.192,2.063,28.627c-1.882,9.79-9.409,17.469-17.247,23.63
			c-7.837,6.16-16.506,11.612-22.373,19.672c-6.429,8.833-7.901,19.03-6.855,29.641c0.756,7.663,10.604,19.384,5.687,26.035
			c-0.921,1.244-2.181,2.188-3.27,3.288c-4.205,4.253-5.588,10.75-4.634,16.654c4.286,26.531,41.85,30.994,62.765,36.619
			c17.016,4.576,38.045,0.342,52.526-9.695c9.593-6.648,17.764-21.934,22.155-32.428c3.976-9.499,4.591-21.404-2.046-29.278
			C453.885,290.132,449.202,286.535,445.8,283.165z"/>
		<path fill="#6EE7B7" d="M136.768,350.633c6.755-8.597,12.679-20.102,8.127-30.042c-2.814-6.145-9.326-10.698-9.878-17.434
			c-0.529-6.462,4.69-11.878,6.447-18.119c1.539-5.47,0.195-11.667-3.473-16.008c-5.509-6.52-7.21-8.825-6.737-17.24
			c0.518-9.21,0.708-17.235,4.174-26.027c10.646-27.01,8.245-57.215-6.867-82c-4.375-7.174-10.34-14.057-10.764-22.449
			c-0.302-5.994,2.348-11.854,1.984-17.844c-0.142-2.335-0.854-4.809-2.699-6.249c-2.51-1.959-6.163-1.34-9.097-0.104
			c-10.314,4.344-15.988,14.647-18.219,25.182c-1.174,5.546-1.301,11.285-2.655,16.79c-2.716,11.041-11.524,13.32-18.282,21.21
			c-8.62,10.065-10.665,25.284-5.009,37.268c1.815,3.845,4.414,7.696,3.975,11.925c-0.527,5.081-5.158,8.563-8.071,12.758
			c-3.817,5.495-4.71,12.904-2.31,19.15c4.796,12.476,3.818,14.09-4.78,23.255c-6.446,6.872-9.054,13.932-5.986,23.452
			c2.456,7.625,7.499,14.089,11.678,20.923c6.833,11.172,10.103,22.758,13.397,35.259c2.372,9.001,7.05,18.945,16.512,22.324
			c7.499,2.679,20.304,3.849,28.268,2.035C125.085,366.695,131.686,357.101,136.768,350.633z"/>
		<path fill="#059669" d="M109.321,350.237c3.323-2.909,6.514-6.129,8.397-10.123c1.883-3.995,2.272-8.917,0.056-12.736
			c-3.41-5.879-12.046-7.071-18.015-3.823c3.311-5.193,5.476-11.113,6.296-17.217c0.499-3.71-0.195-8.507-3.792-9.539
			c-3.54-1.015-6.609,2.503-8.62,5.588c2.126-7.78-0.56-16.668-6.639-21.969c-1.617-1.41-3.549-2.613-5.69-2.753
			c-2.944-0.193-5.729,1.724-7.285,4.23c-1.557,2.506-2.079,5.514-2.312,8.454c-1.078,13.607,3.346,26.981,7.711,39.914
			c-4.348-5.146-10.723-8.53-17.421-9.249c-1.591-0.171-3.358-0.145-4.583,0.885c-2.153,1.811-1.265,5.294,0.067,7.771
			c2.53,4.703,6.036,8.88,10.23,12.186c-5.698-3.643-13.136-4.41-19.458-2.008c-1.088,0.414-2.182,0.944-2.91,1.854
			c-1.735,2.165-0.657,5.489,1.213,7.539c2.078,2.275,4.915,3.681,7.683,5.035c7.474,3.657,21.889,13.845,29.148,12.471
			C92.168,365.087,102.791,355.954,109.321,350.237z"/>
		<path fill="#6EE7B7" d="M423.688,360.519c2.867-2.51,5.621-5.288,7.245-8.734c1.625-3.447,1.961-7.694,0.049-10.99
			c-2.942-5.072-10.394-6.102-15.544-3.299c2.856-4.48,4.725-9.589,5.433-14.855c0.431-3.2-0.168-7.341-3.272-8.23
			c-3.054-0.876-5.702,2.159-7.438,4.821c1.835-6.713-0.483-14.383-5.729-18.956c-1.396-1.217-3.063-2.254-4.909-2.376
			c-2.541-0.166-4.943,1.488-6.286,3.651c-1.344,2.162-1.794,4.757-1.995,7.295c-0.93,11.74,2.887,23.28,6.653,34.439
			c-3.752-4.439-9.253-7.36-15.032-7.98c-1.373-0.147-2.897-0.125-3.955,0.764c-1.857,1.562-1.091,4.567,0.059,6.705
			c2.183,4.059,5.208,7.662,8.827,10.515c-4.916-3.144-11.335-3.806-16.789-1.732c-0.938,0.357-1.883,0.815-2.511,1.6
			c-1.497,1.868-0.567,4.736,1.047,6.505c1.793,1.963,4.241,3.176,6.629,4.345c6.449,3.155,18.888,11.945,25.151,10.76
			C408.887,373.332,418.054,365.451,423.688,360.519z"/>
		<path fill="#2F8E91" d="M115.087,322.642c3.302-0.863,6.315-2.242,9.139-4.159c1.593-1.081,3.087,1.503,1.506,2.577
			c-3.017,2.047-6.325,3.537-9.851,4.459C114.021,326.005,113.228,323.128,115.087,322.642z"/>
		<path fill="#2F8E91" d="M116.818,283.827c2.437-1.026,4.873-2.053,7.31-3.079c1.767-0.744,2.539,2.143,0.793,2.877
			c-2.436,1.026-4.873,2.053-7.309,3.079C115.844,287.448,115.072,284.563,116.818,283.827z"/>
		<path fill="#2F8E91" d="M115.629,220.634c3.017-1.302,5.317-3.501,6.728-6.471c0.823-1.734,3.397-0.221,2.576,1.506
			c-1.597,3.364-4.376,6.065-7.797,7.542C115.391,223.963,113.87,221.394,115.629,220.634z"/>
	</g>
	<g>
		<g>
			<path fill="#312E81" d="M392.389,380.512H98.945c-6.413,0-11.611-5.199-11.611-11.611V172.142
				c0-6.413,5.199-11.611,11.611-11.611h293.443c6.413,0,11.611,5.198,11.611,11.611V368.9
				C404,375.313,398.802,380.512,392.389,380.512z"/>
			<rect x="91.217" y="174.003" fill="#E6EBF4" width="307.797" height="195.145"/>
		</g>
		<rect x="96.647" y="252.709" fill="#ACB9E8" width="78.058" height="62.092"/>
		<rect x="264.295" y="252.709" fill="#ACB9E8" width="52.334" height="78.058"/>
		<rect x="181.294" y="181.887" fill="#ACB9E8" width="75.993" height="63"/>
		<g>
			<rect x="181.802" y="254.709" fill="#ACB9E8" width="78.058" height="5.037"/>
			<rect x="181.802" y="277.894" fill="#ACB9E8" width="78.058" height="5.037"/>
			<rect x="181.802" y="294.684" fill="#ACB9E8" width="78.058" height="5.037"/>
		</g>
		<rect x="322.838" y="252.709" fill="#ACB9E8" width="71.849" height="5.666"/>
		<rect x="322.838" y="266.771" fill="#ACB9E8" width="71.849" height="5.666"/>
		<rect x="322.838" y="280.833" fill="#ACB9E8" width="71.849" height="5.667"/>
		<rect x="322.838" y="294.896" fill="#ACB9E8" width="71.849" height="5.667"/>
		<rect x="322.838" y="308.958" fill="#ACB9E8" width="71.849" height="5.666"/>
		<rect x="322.838" y="323.02" fill="#ACB9E8" width="71.849" height="5.667"/>
		<g>
			<rect x="261.838" y="182.709" fill="#ACB9E8" width="132.449" height="5.667"/>
			<rect x="261.838" y="197.014" fill="#ACB9E8" width="132.449" height="5.667"/>
			<rect x="261.838" y="211.32" fill="#ACB9E8" width="132.449" height="5.667"/>
			<rect x="261.838" y="225.625" fill="#ACB9E8" width="132.449" height="5.667"/>
			<rect x="261.838" y="239.931" fill="#ACB9E8" width="132.449" height="5.667"/>
		</g>
		<g>
			<rect x="96.838" y="182.709" fill="#ACB9E8" width="79.449" height="5.667"/>
			<rect x="96.838" y="197.014" fill="#ACB9E8" width="79.449" height="5.667"/>
			<rect x="96.838" y="211.32" fill="#ACB9E8" width="79.449" height="5.667"/>
			<rect x="96.838" y="225.625" fill="#ACB9E8" width="79.449" height="5.667"/>
			<rect x="96.838" y="239.931" fill="#ACB9E8" width="79.449" height="5.667"/>
		</g>
		<g>
			<rect x="96.647" y="318.349" fill="#ACB9E8" width="78.058" height="5.037"/>
			<rect x="96.647" y="332.34" fill="#ACB9E8" width="78.058" height="5.037"/>
			<rect x="96.647" y="346.332" fill="#ACB9E8" width="78.058" height="5.037"/>
			<rect x="96.647" y="360.323" fill="#ACB9E8" width="78.058" height="5.037"/>
		</g>
		<g>
			<rect x="181.802" y="304.156" fill="#ACB9E8" width="78.058" height="3.721"/>
			<rect x="181.802" y="316.56" fill="#ACB9E8" width="78.058" height="3.721"/>
			<rect x="181.802" y="328.963" fill="#ACB9E8" width="78.058" height="3.721"/>
		</g>
		<rect x="322.838" y="337.403" fill="#ACB9E8" width="71.849" height="5.024"/>
		<rect x="322.838" y="351.465" fill="#ACB9E8" width="71.849" height="5.025"/>
		<g>
			<rect x="181.802" y="341.95" fill="#ACB9E8" width="78.058" height="3.721"/>
			<rect x="181.802" y="354.354" fill="#ACB9E8" width="78.058" height="3.721"/>
		</g>
		<g>
			<rect x="265.802" y="341.95" fill="#ACB9E8" width="50.485" height="3.721"/>
			<rect x="265.802" y="354.354" fill="#ACB9E8" width="50.485" height="3.721"/>
		</g>
	</g>
	<g>
		<path fill="none" stroke="#19034D" stroke-width="7" stroke-miterlimit="10" d="M255.336,316.188"/>
		<path fill="none" stroke="#19034D" stroke-width="7" stroke-miterlimit="10" d="M319.383,370.594"/>
		<g>
			<path fill="#19034D" d="M319.653,411.135c0.052,0.809-0.067,1.877-0.943,2.254c-0.296,0.127-0.613,0.136-0.918,0.141
				c-0.648,0.012-1.296,0.023-1.944,0.035c-0.444,0.008-0.896,0.015-1.299-0.098c-0.325-0.09-0.607-0.255-0.917-0.372
				c-1.595-0.606-3.617,0.082-5.479,0.309c-2.559,0.313-5.858-0.399-7.562-1.91c-1.83-1.623,0.526-3.889,2.864-3.922
				c2.177-0.031,4.256,0.654,6.453,0.124c0.611-0.147,1.257-0.421,1.633-0.915c0.45-0.594,0.379-1.313,0.286-1.952
				c-0.14-0.965-0.28-1.931-0.42-2.896c-0.068-0.469-0.333-0.867-0.563-1.259c1.556,0.236,3.38-0.007,5.046-0.108
				c1.434-0.087,2.826-0.629,3.137,0.771C319.702,404.373,319.451,407.965,319.653,411.135z"/>
			<path fill="#19034D" d="M399.407,407.471c0.294,0.078,0.614,0.177,0.775,0.435c0.178,0.284,0.095,0.652,0.004,0.975
				c-0.756,2.676-1.709,5.296-2.849,7.832c-0.685,1.523-1.49,3.079-2.857,4.038c-1.024,0.719-2.278,1.035-3.518,1.215
				c-1.375,0.199-2.857,0.229-4.065-0.456c-1.209-0.686-1.977-2.299-1.322-3.524c0.604-1.129,1.892-1.283,3.039-1.241
				c0.639,0.023,1.095,0.399,1.566-0.046c0.311-0.292,0.41-1.251,0.504-1.654c0.146-0.631,0.231-1.351-0.141-1.932
				c-0.415-0.648-1.26-0.849-2.024-0.936c-0.489-0.056-1.041-0.119-1.336-0.513c-0.244-0.326-0.226-0.773-0.186-1.179
				c0.045-0.454,0.104-0.907,0.174-1.357c0.127-0.811,0.214-2.735,0.82-3.328c0.27-0.264,0.766-0.24,1.11-0.245
				c1.236-0.017,2.503,0.242,3.714,0.462C395.026,406.417,397.235,406.896,399.407,407.471z"/>
			<path fill="#EC4899" d="M369.386,363.264c-0.98-2.038-4.224-3.25-6.216-3.949c-7.166-2.514-14.793-3.487-22.326-4.336
				c-3.22-0.363-6.445-0.7-9.683-0.855c-2.849-0.137-5.76-0.393-8.604-0.312c-1.235,0.035-2.472,0.07-3.707,0.105
				c-0.893,0.026-1.794,0.053-2.659,0.275c-1.334,0.344-2.375,0.439-3.383,1.513c-2.319,2.472-3.663,5.733-4.321,9.059
				c-0.081,0.411-0.152,0.824-0.216,1.238c-0.017,6.403,0.023,12.799,0.548,19.206c0.495,6.051,1.126,12.089,1.762,18.126
				c2.595,0.072,5.189,0.143,7.782,0.233c0.858-0.008,1.716-0.014,2.574-0.018c3.063-9.72,3.591-20.125,3.913-30.353
				c8.922,2.056,18.395,3.701,27.565,4.467c6.751,0.563,15.07,0.137,17.12-7.806c0.261-1.008,0.368-2.049,0.4-3.088
				C369.974,365.576,369.903,364.34,369.386,363.264z"/>
			<path fill="#FF735F" d="M319.52,304.59c-1.131,1.436-1.606,3.368-1.271,5.164c0.173,0.924,0.547,1.799,0.979,2.633
				c0.934,1.794,2.431,3.594,4.45,3.711c1.11,0.064,2.222-0.401,3.316-0.207c1.058,0.188,1.906,0.956,2.661,1.719
				c1.652,1.669,3.163,3.477,4.514,5.397c2.183-0.786,4.48-1.652,5.925-3.468c-3.478-5.232-7.361-10.193-11.605-14.825
				C325.845,301.829,322.178,301.217,319.52,304.59z"/>
			<path fill="#5B21B6" d="M337.666,320.5c-1.239-1.496-3.359-2.259-5.232-1.74c-3.19,0.884-4.746,6.011-5.835,8.742
				c-1.253,3.142-2.623,6.274-4.636,8.991c-4.152,5.604-11.052,9.046-18.021,9.055c0.717,2.852,0.975,5.783,1.201,8.721
				c1.447-0.261,3.415,0.225,4.7,0.416c7.796,1.161,15.543-3.283,20.557-8.996c3.034-3.457,7.639-10.238,8.869-16.434
				C339.919,325.981,339.628,322.871,337.666,320.5z"/>
			<path fill="#7C3AED" d="M337.976,343.705c3.347,5.437,7.396,10.516,11.577,15.146c0.662-1.148,1.422-1.009,2.593-1.196
				c1.637-0.263,3.222-0.921,4.801-1.409c5.026-1.554,14.762-4.685,15.321-4.963c0.285-0.143-11.517-15.798-12.67-17.161
				c-2.814-3.328-5.746-6.563-8.883-9.591c-1.604-1.549-3.26-3.043-4.972-4.472c-1.562-1.302-2.918-2.577-4.781-3.45
				c-0.392-0.184-0.79-0.369-1.217-0.439c-0.445-0.074-0.901-0.02-1.349,0.037c-0.763,0.096-1.529,0.198-2.26,0.438
				c-2.045,0.671-3.64,2.4-4.464,4.389c-0.824,1.989-0.94,4.214-0.682,6.351c0.344,2.831,1.526,5.555,2.675,8.169
				C334.903,338.369,336.362,341.086,337.976,343.705z"/>
			<g>
				
					<linearGradient id="SVGID_1_" gradientUnits="userSpaceOnUse" x1="353.3613" y1="358.3633" x2="353.8311" y2="358.3633" gradientTransform="matrix(0.9934 0.1143 -0.1143 0.9934 38.4102 -35.1719)">
					<stop  offset="0.0184" style="stop-color:#022A5D"/>
					<stop  offset="1" style="stop-color:#0C4691"/>
				</linearGradient>
				<path fill="url(#SVGID_1_)" d="M348.932,361.349c-0.005-0.061,0.012-0.316-0.104-0.346c-0.115-0.029-0.262,0.103-0.345,0.178
					c0.12,0.041,0.328,0.28,0.385,0.324c0.058,0.044,0.021-0.049,0.037-0.066C348.922,361.42,348.936,361.408,348.932,361.349z"/>
				<path fill="#EC4899" d="M390.789,403.74c-9.561-3.142-18.984-6.544-28.739-9.058c0.575,0.148,4.686-8.134,5.14-9.013
					c3.615-6.993,7.748-14.33,7.934-22.477c0.054-2.327-0.368-4.645-1.007-6.883c-0.815-2.862-2.082-5.711-3.618-8.317
					c-0.62-1.052-1.298-2.068-2.001-3.066c-6.725,4.758-14.639,7.536-22.239,10.684c0.136,0.239,0.277,0.477,0.404,0.723
					c0.662,1.281,1.587,2.848,1.914,4.249c0.467,2.001,0.229,4.364-0.066,6.373c-0.499,3.396-1.509,6.642-2.44,10.006
					c-1.403,5.068-2.395,9.837-3.422,15.216c-0.864,4.519-3.101,11.62,0.909,15.095c4.412,3.821,10.12,3.729,15.118,4.316
					c7.425,0.872,13.509,1.643,20.734,2.953c2.63,0.478,5.743,0.834,8.587,1.155C388.992,411.728,389.899,407.735,390.789,403.74z"
					/>
			</g>
			
				<line fill="none" stroke="#19034D" stroke-width="5" stroke-miterlimit="10" x1="319.383" y1="370.594" x2="255.336" y2="316.188"/>
			<path fill="#DB6352" d="M304.37,347.15c-0.348,0.046-0.695,0.096-1.041,0.157c-0.592,0.106-1.201,0.234-1.796,0.232
				c-0.329-0.001-0.653-0.042-0.968-0.149c-1.665-0.565-2.801-0.879-4.03,0.711c-0.758,0.98-1.278,2.455-1.026,3.699
				c0.172,0.852,0.657,1.646,1.365,2.156c1.218,0.878,3.055,0.839,4.574,0.429c0.401-0.108,0.78-0.242,1.12-0.392
				c0.881-0.388,1.723-0.859,2.219-1.706c0.282-0.482,0.428-0.97,0.658-1.407C305.045,349.651,304.727,348.396,304.37,347.15z"/>
			<path fill="#FF735F" d="M307.386,353.131c-0.184-1.213-1.931-2.355-3.345-2.428c-1.348-0.069-2.675,0.311-4.02,0.422
				s-2.844-0.116-3.732-1.131c-0.866-0.988-0.918-2.428-1.399-3.65c-0.414-1.054-1.174-1.968-2.134-2.568
				c-0.318,0.177-0.413,0.606-0.337,0.963s0.281,0.669,0.438,0.998c1.059,2.232,0.216,4.837-2.389,2.873
				c-1.641-1.236-3.397-2.318-5.239-3.228c-0.208-0.103-0.456-0.203-0.662-0.097c-0.229,0.118-0.273,0.426-0.245,0.682
				c0.084,0.765,0.554,1.425,0.821,2.146c0.282,0.757,0.339,1.575,0.511,2.364c0.41,1.881,1.56,3.289,3.403,3.866
				c2.177,0.681,4.446,1.063,6.726,1.134c3.683,0.115,7.295,1.491,10.702-0.739C307.229,354.25,307.469,353.684,307.386,353.131z"/>
			<g>
				<path fill="#7C3AED" d="M342.934,326.08c-0.261-1.079-0.861-2.072-1.519-3.028c-0.89-1.294-2.109-2.469-3.646-3.033
					c-1.536-0.564-3.284-0.419-4.51,0.654c-0.959,0.839-1.208,2.098-1.532,3.198c-1.271,4.323-2.794,8.508-4.813,12.462
					c-0.811,1.586-1.282,2.897-2.554,4.147c-1.541,1.515-3.319,2.687-5.28,3.671c-1.399,0.703-2.739,1.297-4.289,1.762
					c-4.867,1.46-9.877,2.126-14.936,2.489c0.022,2.846,0.031,5.691-0.056,8.535c8.419,0.121,16.285,1.489,24.113-2.211
					c6.437-3.043,11.313-7.451,15.501-13.313C342.633,336.91,344.278,331.642,342.934,326.08z"/>
			</g>
			<g>
				<g>
					<g>
						<path fill="#19034D" d="M357.522,313.444c-0.51-2.151-2.218-4.044-4.378-4.52c-0.388-0.086-0.776-0.127-1.166-0.133
							c-1.889-0.031-3.783,0.754-5.659,1.208c-0.953,0.231-2.105,0.323-2.775-0.395c-0.584-0.625-0.569-1.647-1.157-2.27
							c-0.678-0.716-1.84-0.605-2.785-0.325c-0.738,0.219-1.456,0.508-2.141,0.861c-0.649,0.336-1.791,0.777-2.428,0.177
							c-0.523-0.493-0.356-1.347-0.167-2.041c0.344-1.258-0.131-2.645-1.288-3.299c-0.667-0.378-1.423-0.375-2.105-0.696
							c-0.784-0.368-1.431-0.993-2.036-1.598c-0.936-0.935-1.999-1.942-3.32-1.982c-1.579-0.049-2.805,1.272-3.986,2.32
							c-1.347,1.194-2.909,2.146-4.588,2.795c-1.046,0.405-2.286,0.837-2.622,1.906c-0.161,0.514-0.048,1.114,0.318,1.509
							s0.98,0.551,1.478,0.343c0.681-0.285,1.236-1.127,2.079-0.681c0.589,0.312,0.838,1.292,1.223,1.81
							c0.631,0.848,1.354,1.637,2.138,2.347c2.083,1.89,5.246,2.595,7.92,1.619c0.713-0.26,1.385-0.637,2.118-0.83
							c1.051-0.278,1.934-0.214,2.454,0.771c0.51,0.964,0.702,2.066,0.964,3.114c0.338,1.36,0.797,2.691,1.368,3.973
							c0.34,0.763,0.727,1.518,1.29,2.134c0.489,0.535,1.098,0.948,1.729,1.304c2.543,1.426,5.586,1.939,8.456,1.428
							c2.836-0.507,6.022-2.142,7.709-4.554C357.432,317.928,358.031,315.597,357.522,313.444z"/>
					</g>
				</g>
			</g>
			<path fill="#4338CA" d="M340.478,301.367l-6.099,0.021c0.041-0.246,0.007-0.516-0.13-0.792c-1.11-2.241-4.105-4.574-6.667-4.772
				c-3.083-0.238-6.918,1.792-8.261,4.618c-0.196,0.412-0.393,0.714-0.33,1.064l-6.86,0.02c-0.377,0.004-0.679,0.395-0.674,0.873
				c0.004,0.479,0.313,0.863,0.69,0.859l28.347-0.158c0.377-0.004,0.679-0.395,0.675-0.873
				C341.164,301.748,340.854,301.363,340.478,301.367z"/>
			<linearGradient id="SVGID_2_" gradientUnits="userSpaceOnUse" x1="352.1553" y1="375.626" x2="335.7422" y2="366.6173">
				<stop  offset="0.2654" style="stop-color:#19034D;stop-opacity:0.9148"/>
				<stop  offset="0.5554" style="stop-color:#320699;stop-opacity:0"/>
			</linearGradient>
			<path opacity="0.6" fill="url(#SVGID_2_)" d="M333.157,374.623c1.467,0.361,2.923,0.776,4.401,1.143
				c2.813,0.698,5.643,0.598,8.446,0.972c0.046-0.032,0.09-0.05,0.136-0.088c0.006,0.063,1.787-8.073,2.942-12.135
				C344.188,368.505,338.875,371.953,333.157,374.623z"/>
			<linearGradient id="SVGID_3_" gradientUnits="userSpaceOnUse" x1="336.4863" y1="336.3584" x2="349.3214" y2="343.0227">
				<stop  offset="0.2654" style="stop-color:#19034D;stop-opacity:0.9148"/>
				<stop  offset="0.5554" style="stop-color:#320699;stop-opacity:0"/>
			</linearGradient>
			<path opacity="0.6" fill="url(#SVGID_3_)" d="M346.141,337.419c-0.432-1.581-1.017-3.119-1.768-4.577
				c-0.192-0.372-0.599-0.894-1.027-1.444c-0.741,3.67-2.319,7.081-4.455,10.134c-0.392,0.835-0.808,1.657-1.304,2.425
				c0.2,0.266,0.399,0.531,0.6,0.797c0.718,0.955,1.507,1.963,2.642,2.339c1.339,0.443,2.848-0.14,3.877-1.104
				C347.436,343.427,347.046,340.739,346.141,337.419z"/>
			<linearGradient id="SVGID_4_" gradientUnits="userSpaceOnUse" x1="325.0889" y1="311.6328" x2="334.7148" y2="319.531">
				<stop  offset="0.2654" style="stop-color:#201B59;stop-opacity:0.9148"/>
				<stop  offset="0.5554" style="stop-color:#FF735F;stop-opacity:0"/>
			</linearGradient>
			<path fill="url(#SVGID_4_)" d="M329.869,312.809c0.49,2.077,0.924,4.168,1.302,6.27c-0.455-0.516-0.911-1.031-1.366-1.546
				c-0.275-0.312-0.558-0.629-0.916-0.839c-0.246-0.144-0.522-0.234-0.748-0.407c-0.549-0.422-0.802-0.549-1.485-0.622
				c0.168-0.504,1.11-0.868,1.521-1.208C328.784,313.954,329.329,313.38,329.869,312.809z"/>
		</g>
		<g>
			<defs>
				<circle id="SVGID_5_" cx="235.095" cy="295.694" r="28.808"/>
			</defs>
			<clipPath id="SVGID_6_">
				<use xlink:href="#SVGID_5_"  overflow="visible"/>
			</clipPath>
			<rect x="204.58" y="266.034" clip-path="url(#SVGID_6_)" fill="#E6EBF4" width="64.017" height="60.602"/>
			<g clip-path="url(#SVGID_6_)">
				<rect x="192.704" y="312.817" fill="#ACB9E8" width="84.428" height="8.642"/>
				<rect x="192.704" y="296.594" fill="#ACB9E8" width="84.428" height="8.642"/>
				<rect x="192.704" y="281.451" fill="#ACB9E8" width="84.428" height="8.642"/>
				<rect x="192.704" y="265.227" fill="#ACB9E8" width="84.428" height="8.643"/>
			</g>
		</g>
		<circle fill="none" stroke="#19034D" stroke-width="5" stroke-miterlimit="10" cx="235.095" cy="295.694" r="28.808"/>
		<g>
			<path fill="#FFFFFF" d="M235.469,317.329c-4.876,0-9.73-1.643-13.84-4.768c-5.456-4.148-8.712-10.275-8.934-16.81
				c-0.158-4.666,1.224-9.397,3.836-13.294c0.685-1.022,2.098-1.239,3.043-0.45l0.116,0.097c0.823,0.687,0.956,1.874,0.361,2.766
				c-2.105,3.151-3.218,6.971-3.091,10.737c0.178,5.247,2.821,10.188,7.251,13.557c3.982,3.027,8.799,4.354,13.464,3.756
				c1.058-0.136,2.055,0.512,2.305,1.548l0.036,0.151c0.289,1.198-0.535,2.37-1.757,2.529
				C237.333,317.269,236.4,317.329,235.469,317.329z"/>
		</g>
	</g>
	<g>
		<path fill="#FF735F" d="M147.169,242.504c-0.708-0.313-1.576-0.236-2.202-0.693c-0.346-0.252-0.569-0.637-0.766-1.017
			c-0.622-1.202-1.087-2.485-1.379-3.807c-0.353-1.595-0.403-3.421,0.62-4.694c2.937,2.139,3.649,6.295,6.251,8.83
			c0.392,0.381,0.833,0.734,1.079,1.222C152.155,245.083,147.801,242.783,147.169,242.504z"/>
		<path fill="#FF735F" d="M147.606,246.576c0.371-0.746,0.76-1.429,0.989-1.943c0.162-0.363,0.327-0.746,0.293-1.142
			c-0.104-1.21-1.751-2.619-2.254-3.764c-0.713-1.625-1.048-3.418-0.952-5.19c0.011-0.204,0.047-0.44,0.225-0.541
			c0.232-0.133,0.511,0.064,0.699,0.254c1.666,1.685,2.726,3.821,3.945,5.824c1.007,1.653,3.749,3.837,3.454,5.888
			c-0.125,0.869-0.57,1.653-1.007,2.414c-0.642,1.119-1.284,2.237-1.927,3.355c-0.331,0.576-0.738,1.209-1.389,1.337
			c-1.078,0.212-2.24-1.281-2.663-2.149C146.297,249.437,146.913,247.973,147.606,246.576z"/>
		<path fill="#7C3AED" d="M147.628,245.771c2.123,1.27,4.245,2.54,6.367,3.81c-6.622,9.061-9.431,20.819-7.62,31.895
			c0.513,3.139,1.38,6.231,1.533,9.408c0.174,3.638-1.294,10.59-5.539,11.609c-1.517,0.364-3.21-0.125-4.298-1.242
			c-0.974-1-1.43-2.384-1.806-3.729c-2.957-10.577-2.713-22.004,0.568-32.477C137.295,263.57,145.971,244.792,147.628,245.771z"/>
		<g>
			<defs>
				<circle id="SVGID_7_" cx="166.627" cy="223.316" r="24.551"/>
			</defs>
			<clipPath id="SVGID_8_">
				<use xlink:href="#SVGID_7_"  overflow="visible"/>
			</clipPath>
			<rect x="140.622" y="198.038" clip-path="url(#SVGID_8_)" fill="#E6EBF4" width="54.558" height="51.648"/>
			<g clip-path="url(#SVGID_8_)">
				<rect x="130.5" y="237.909" fill="#ACB9E8" width="71.954" height="7.365"/>
				<rect x="130.5" y="224.083" fill="#ACB9E8" width="71.954" height="7.365"/>
				<rect x="130.5" y="211.177" fill="#ACB9E8" width="71.954" height="7.365"/>
				<rect x="130.5" y="197.35" fill="#ACB9E8" width="71.954" height="7.365"/>
			</g>
		</g>
		<g>
			<g>
				<path fill="#34417D" d="M168.509,248.338c-14.834,0-26.903-12.069-26.903-26.903s15.832-32.547,30.667-32.547
					s26.903,12.068,26.903,26.903C199.175,230.625,183.344,248.338,168.509,248.338z M168.509,199.235
					c-12.241,0-25.022,13.722-25.022,25.962s9.958,22.2,22.2,22.2c12.241,0,25.021-13.722,25.021-25.963
					C190.708,209.194,180.75,199.235,168.509,199.235z"/>
			</g>
		</g>
		<g>
			<path fill="#19034D" d="M166.628,250.22c-14.834,0-26.903-12.069-26.903-26.903c0-14.835,12.069-26.903,26.903-26.903
				s26.903,12.068,26.903,26.903C193.531,238.151,181.462,250.22,166.628,250.22z M166.628,201.117
				c-12.241,0-22.2,9.958-22.2,22.199s9.958,22.2,22.2,22.2c12.241,0,22.199-9.959,22.199-22.2S178.869,201.117,166.628,201.117z"/>
		</g>
		<g>
			<path fill="#FFFFFF" d="M166.947,241.754c-4.156,0-8.292-1.399-11.795-4.063c-4.65-3.536-7.425-8.757-7.614-14.327
				c-0.134-3.977,1.043-8.008,3.27-11.33c0.584-0.871,1.789-1.056,2.593-0.384l0.1,0.083c0.701,0.585,0.814,1.598,0.308,2.357
				c-1.794,2.686-2.743,5.941-2.635,9.151c0.151,4.472,2.404,8.683,6.18,11.554c3.394,2.581,7.499,3.711,11.475,3.201
				c0.901-0.116,1.751,0.436,1.964,1.319l0.031,0.129c0.247,1.021-0.456,2.02-1.498,2.155
				C168.535,241.703,167.741,241.754,166.947,241.754z"/>
		</g>
		<g>
			<path fill="#19034D" d="M94.521,402.146c-0.055,0.113-0.106,0.229-0.15,0.347c-0.79,2.096,1.578,4.146,2.665,5.721
				c1.769,2.562,3.537,5.124,5.305,7.687c0.589,0.854,1.195,1.725,2.041,2.325c2.064,1.467,5.813,1.171,5.181-2.15
				c-0.25-1.314-1.146-2.395-1.934-3.475c-1.59-2.179-3.014-4.822-3.258-7.557c-0.258-2.892,1.256-5.07,2.687-7.441
				c1.135-1.881,1.917-3.975,2.294-6.14c0.11-0.631,0.185-1.286,0.032-1.909c-0.153-0.622-0.575-1.213-1.187-1.406
				c-0.339-0.107-0.706-0.086-1.056-0.022c-2.436,0.441-4.463,2.684-5.646,4.701c-1.515,2.585-3.308,5.007-5.337,7.21
				C95.553,400.693,94.913,401.353,94.521,402.146z"/>
			<path fill="#19034D" d="M144.12,414.288c-0.139,0.947-0.215,2.066,0.501,2.7c0.521,0.462,1.284,0.49,1.979,0.5
				c3.748,0.051,7.494,0.26,11.224,0.625c1.858,0.183,3.063,0.069,4.835-0.562c0.849-0.303,1.718-0.859,1.917-1.738
				c0.212-0.94-0.457-1.896-1.302-2.358s-1.835-0.559-2.788-0.704c-2.006-0.306-4.926-0.408-6.232-2.156
				c-1.163-1.557-1.078-3.778-1.068-5.62c0.006-1.319,0.146-2.641,0.055-3.957s-0.437-2.663-1.281-3.677
				c-0.845-1.015-2.266-1.619-3.526-1.229c-0.997,0.31-1.743,1.176-2.157,2.134s-0.545,2.011-0.671,3.047
				C145.084,405.58,144.237,409.967,144.12,414.288z"/>
			<path fill="#FF735F" d="M184.113,243.528c-0.834,0.827-1.732,1.59-2.664,2.353c-1.637,1.34-2.825,0.665-4.745,0.285
				c-0.311-0.062-0.632-0.124-0.942-0.058c-0.311,0.066-0.609,0.294-0.655,0.608c-0.08,0.546,1.896,1.858,2.272,2.352
				c0.72,0.947,1.295,2.083,1.345,3.292c0.063,1.521-0.277,3.225-0.339,4.767c-0.037,0.914-0.087,1.829-0.082,2.744
				c0.009,1.649,0.139,3.598,1.331,4.867c1.819,1.938,3.623-0.327,3.804-2.128c0.096-0.954-0.013-1.915-0.091-2.87
				c-0.316-3.903,0.151-7.45,1.848-10.987c1.267-2.64,3.112-4.605,3.436-7.666c0.035-0.327,0.05-0.677-0.113-0.962
				c-0.316-0.556-1.171-0.566-1.686-0.186C185.77,240.725,185.115,242.533,184.113,243.528z"/>
			<path fill="#FF977D" d="M150.595,276.583c-0.582-3.123-1.5-6.466-0.198-9.364c1.094-2.437,3.76-4.053,6.43-3.968
				s5.199,1.827,6.295,4.264c0.813,1.807,0.9,4.154,0.036,5.968c-0.89,1.867-2.575,2.776-3.095,4.991
				c-0.372,1.583-0.37,3.225-0.512,4.844c-0.11,1.252-0.334,2.562-1.123,3.54c-1.037,1.289-2.886,1.72-4.507,1.395
				c-1.199-0.24-3.837-1.295-4.421-2.479c-0.551-1.116,0.73-2.19,1.068-3.233C151.175,280.668,150.948,278.479,150.595,276.583z"/>
			<path fill="#7C3AED" d="M184.792,255.017h-7.708c0.032,0.702,0.058,1.404,0.079,2.105c0.078,2.611,0.157,5.223,0.235,7.834
				c0.116,3.867-0.03,7.164-2.04,10.54c-2.381,4.001-6.905,9.037-11.81,9.681c-1.776,0.233-3.56-0.214-5.322-0.535
				c-4.179-0.763-12.18-1.95-15.696,1.252c-1.606,1.462-1.993,3.794-2.394,5.929c-1.062,5.652-2.868,11.165-5.358,16.349
				c-1.076,2.24-2.302,4.495-2.517,6.972c-0.266,3.068,1.159,6.104,3.358,8.193c2.503,2.378,5.228,1.602,8.322,2.286
				c3.515,0.777,7.592,2.545,11.142,2.76c3.735,0.226,3.37-4.509,3.816-7.212c0.781-4.729,1.57-9.491,3.209-13.996
				c1.638-4.506,4.195-8.789,7.963-11.753c3.325-2.615,7.478-4.099,10.536-7.066c0.891-0.864,1.676-1.838,2.354-2.889
				c1.668-2.582,2.692-5.623,3.055-8.62c0.158-1.305,0.084-2.625,0.01-3.937C185.698,267.057,184.912,260.963,184.792,255.017z"/>
			<path fill="#EC4899" d="M117.333,359.012c-0.749,2.136-1.542,4.258-2.443,6.355c-4.635,10.792-11.545,20.03-17.547,30.1
				c0.525,0.444,10.44,6.936,10.005,7.564c13.513-14.22,25.057-36.515,32.82-58.768c2.544-7.294,5.483-14.445,7.711-21.813
				c0.158-0.521,0.305-1.068,0.212-1.604c-0.139-0.808-0.784-1.421-1.409-1.951c-3.75-3.188-8.079-5.695-12.711-7.36
				c-0.042-0.667,0.088-1.343,0.373-1.947c-0.289-0.336-0.807,0.069-1.046,0.442c-3.946,6.153-5.245,14.501-7.017,21.587
				c-0.707,2.901-1.186,5.916-2.254,8.664c-1.157,2.978-2.324,5.96-3.385,8.979C119.498,352.515,118.467,355.778,117.333,359.012z"
				/>
			<path fill="#19034D" d="M162.051,268.632c0.201-1.941,0.853-3.736,0.813-5.823c-0.009-0.445-0.075-0.887-0.227-1.322
				c-0.955-2.744-3.418-1.03-5.351-1.642c-0.685-0.217-1.308-0.595-1.988-0.825c-1.129-0.384-2.559-0.323-3.598,0.303
				c-1.176,0.708-1.111,2.346-2.176,3.222c-1.366,1.123-2.577,1.354-3.207,3.288c-0.336,1.031,0.096,3.561-0.576,4.303
				c-0.617,0.682-2.825,0.351-3.772,0.616c-2.684,0.752-5.073,2.745-6.029,5.399c0.014-0.039-3.72,0.284-4.084,0.375
				c-1.511,0.378-2.958,1.013-4.263,1.862c-2.682,1.746-4.769,4.336-5.457,7.486c-0.534,2.448-0.373,5.009,0.144,7.461
				c0.262,1.244,0.616,2.476,1.157,3.626c1.868,3.971,5.896,6.67,10.186,7.595c4.29,0.924,8.802,0.236,12.94-1.224
				c5.328-1.879,10.351-5.201,13.157-10.104c2.074-3.622,2.738-8.189,1.448-12.193c-0.313-0.972-0.948-1.812-1.272-2.749
				c-0.447-1.292-0.335-1.123,0.486-2.233c1.213-1.64,1.904-3.28,1.666-5.371C161.966,269.97,161.982,269.292,162.051,268.632z"/>
			<path fill="#EC4899" d="M142.061,366.479c0.464,6.936,0.709,13.885,0.844,20.834c0.13,6.696-0.521,13.796,0.162,20.458
				c0.021,0.222,11.8,0.026,12.3-0.521c0.528-0.577,0.185-3.411,0.212-4.133c0.122-3.231,0.226-6.464,0.337-9.695
				c0.132-3.839,0.33-7.675,0.569-11.508c0.229-3.671,1.478-6.499,2.305-10.057c1.726-7.428,1.473-15.153,0.946-22.706
				c-0.674-9.671-1.152-18.897,0.104-28.53c-1.276-0.323-3.031-1.638-4.448-2.277c-2.862-1.291-5.74-2.56-8.571-3.919
				c-2.321-1.115-4.647-2.219-7.01-3.242c-1.544-0.669-4.583-2.811-6.147-1.488c-0.672,0.569-1.012,1.431-1.29,2.266
				c-1.304,3.922-1.801,8.21-0.724,12.199c1.237,4.584,4.348,8.35,5.889,12.809c1.775,5.137,1.43,10.81,2.461,16.118
				C140.863,357.523,141.758,361.96,142.061,366.479z"/>
			<g>
				<g>
					<path fill="#3730A3" d="M151.863,258.522c1.084-1.965,2.761-3.699,4.9-4.374c1.444-0.456,3.243-0.299,4.165,0.902
						c0.852,1.11,0.672,2.685,0.301,4.034c-0.612,2.23-1.634,4.348-3,6.216c-0.349,0.478-0.735,0.951-1.256,1.232
						c-0.485,0.262-1.05,0.335-1.601,0.35c-1.334,0.036-5.004-0.45-5.597-1.984c-0.28-0.726,0.47-2.291,0.696-3.007
						C150.838,260.731,151.274,259.589,151.863,258.522z"/>
					<path fill="#4338CA" d="M160.036,260.418c-0.69-2.6-3.759-3.478-6.093-3.386c-2.583,0.102-5.092,1.461-6.439,3.695
						c-2.443,4.053-0.25,12.759,5.715,11.67c1.861-0.341,3.409-1.702,4.412-3.308c0.879-1.407,1.399-2.999,1.867-4.596
						c0.066-0.224,0.13-0.448,0.195-0.672C160.012,262.712,160.333,261.535,160.036,260.418z M154.187,270.478
						c-1.512,0.905-3.054,0.777-4.59,0c-0.706-0.357-0.084-1.416,0.62-1.061c1.149,0.582,2.222,0.676,3.351,0
						C154.248,269.01,154.864,270.072,154.187,270.478z"/>
				</g>
			</g>
			<linearGradient id="SVGID_9_" gradientUnits="userSpaceOnUse" x1="144.9985" y1="343.4863" x2="130.0348" y2="346.8477">
				<stop  offset="0.2654" style="stop-color:#19034D;stop-opacity:0.9148"/>
				<stop  offset="0.5554" style="stop-color:#320699;stop-opacity:0"/>
			</linearGradient>
			<path opacity="0.6" fill="url(#SVGID_9_)" d="M136.109,334.985c-0.37-0.189-0.864-0.238-1.58-0.145
				c-0.87,4.254-1.85,8.485-2.944,12.687c-0.533,2.046-0.889,4.415-1.761,6.343c-0.54,1.193-1.087,2.516,0.593,3.296
				c1.06,0.493,2.34,0.189,3.342-0.413c2.252-1.354,3.403-3.954,4.241-6.444c0.535-1.59,1.106-3.097,0.977-4.785
				c-0.089-1.161-0.344-2.3-0.468-3.456c-0.178-1.664-0.556-3.398-1.121-4.973C136.999,336.007,136.726,335.301,136.109,334.985z"/>
		</g>
	</g>
	<g>
		<g>
			<path fill="#19034D" d="M336.099,207.225c0.317,0.854,0.55,2.005-0.206,2.513c-0.255,0.171-0.571,0.219-0.876,0.262
				c-0.647,0.092-1.294,0.183-1.941,0.275c-0.443,0.063-0.895,0.125-1.337,0.056c-0.356-0.056-0.693-0.197-1.044-0.284
				c-1.801-0.449-3.605,0.53-5.401,1c-2.469,0.645-6.017,0.292-8.225-1.107c-2.372-1.502-0.75-4.201,1.587-4.522
				c2.177-0.3,4.49,0.175,6.523-0.658c0.565-0.232,1.125-0.601,1.339-1.173c0.257-0.687-0.051-1.443-0.354-2.111
				c-0.459-1.01-0.917-2.021-1.376-3.031c-0.223-0.49-0.619-0.882-0.979-1.271c1.641,0.062,3.393-0.42,5.033-0.732
				c1.411-0.268,2.632-1.014,3.405,0.438C333.924,200.026,334.853,203.878,336.099,207.225z"/>
			<g>
				<path fill="#5B21B6" d="M323.404,93.221c1.063,3.81,2.033,7.5,4.918,10.336c2.268,2.229,4.546,3.521,7.635,4.659
					c5.864,2.161,10.188,0.919,14.119-4.19c0.702-0.914,1.17-2.022,2.443-2.631c1.274-0.61,3.014-0.519,4.276,0.469
					s2.002,2.383,2.341,3.943c0.114,0.526,0.196,1.06,0.1,1.576c-0.392,2.102-1.727,3.446-3.242,4.878
					c-1.516,1.432-3.118,2.955-5.015,3.859c-3.817,1.82-7.606,3.192-11.883,2.525c-7.741-1.208-14.624-5.116-18.789-11.833
					c-1.778-2.868-2.03-6.366-2.676-9.625c-0.37-1.87-0.44-3.851-0.703-5.737C319.051,92.248,321.188,92.816,323.404,93.221z"/>
			</g>
			<path fill="#7C3AED" d="M361.34,150.7c-6.32-0.499-11.011-2.585-16.638-5.546c-0.05-0.084-2.086-0.942-2.137-1.026
				c0.003-0.338,1.219,0.439,1.213,0.102c-0.078-4.208-1.458-9.529-1.685-13.731c-0.278-5.17-0.563-10.37-0.059-15.536
				c0.23-2.367,0.5-4.218,1.882-6.197c1.187-1.7,2.721-3.145,4.423-4.32c3.217-2.22,6.885-4.267,10.798-2.947
				c3.48,1.174,6.202,4.03,7.835,7.254c1.969,3.886,2.597,8.291,3.197,12.605c0.588,4.224,1.177,8.448,1.765,12.672
				c0.241,1.732,0.172,3.396,0.412,5.113c0.286,2.046,1.061,4.293,1.061,6.352c0.118,0.67-0.028,3.743-0.051,5.206
				C369.063,150.53,365.63,151.038,361.34,150.7z"/>
			<g>
				<path fill="#EC4899" d="M311.635,151.763c2.243-1.761,5.634-3.002,8.025-3.907c5.545-2.097,11.457-3.218,17.4-3.796
					c10.506-1.022,20.586,0.216,30.945,1.84c0.481,0.075,0.976,0.155,1.396,0.401c0.918,0.537,1.244,1.713,1.266,2.777
					c0.042,1.984-0.669,3.897-1.37,5.753c-0.672,1.781-0.925,4.496-2.149,5.926c-1.038,1.191-2.731,2.041-4.283,2.549
					c-3.104,1.016-6.409,1.559-9.627,1.771c-3.977,0.262-7.778-0.135-11.682-0.349c-4.658-0.256-9.575,0.52-14.247,0.684
					c2.412,11.183,5.287,22.287,7.46,33.495c-2.874,0.91-5.844,1.48-8.803,2.144c-0.665,0.149-1.335,0.34-2.006,0.542
					c-0.118-0.182-0.227-0.371-0.332-0.559c-3.547-6.381-7.474-12.374-10.211-19.19c-2.495-6.216-5.012-12.821-5.128-19.605
					c-0.049-2.835,0.194-7.088,2.166-9.367C310.793,152.479,311.191,152.11,311.635,151.763z"/>
			</g>
			<path fill="#FF735F" d="M356.368,96.15c-0.271-1.167-0.54-2.334-0.811-3.5c-0.4-1.729-0.804-3.469-1.487-5.106
				c-0.685-1.638-1.669-3.186-3.06-4.29c-0.64-0.508-1.371-0.92-2.171-1.083c-0.638-0.13-1.296-0.098-1.944-0.042
				c-1.258,0.11-2.53,0.316-3.702,0.806c-3.868,1.617-2.887,7.849-1.774,10.805c0.582,1.548,1.393,3.236,2.956,3.779
				c0.516,0.179,1.08,0.215,1.569,0.456c1.32,0.648,2.055,2.389,2.432,3.708c0.281,0.981,0.439,1.991,0.54,3.005
				c0.045,0.458-0.209,1.509,0.197,1.82c0.429,0.328,1.869-0.032,2.349-0.138c1.595-0.351,3.066-1.149,4.405-2.063
				c0.621-0.424,1.239-0.891,1.63-1.533c0.664-1.09,0.154-1.702-0.218-2.688C356.818,98.865,356.663,97.423,356.368,96.15z"/>
			<path fill="#19034D" d="M338.362,247.657c-0.374,1.081-0.822,2.096-1.315,2.945c-0.74,1.274-1.676,2.464-2.1,3.875
				c-0.425,1.411-0.175,3.176,1.058,3.982c1.017,0.665,2.345,0.489,3.542,0.29c1.275-0.214,2.62-0.458,3.599-1.303
				c0.812-0.7,1.262-1.725,1.616-2.735c0.553-1.578,0.936-3.215,1.139-4.875c0.104-0.841,0.169-1.716,0.574-2.46
				c0.775-1.426,2.64-2.089,3.191-3.617c0.355-0.981,0.068-2.064-0.19-3.075c-0.575-2.246-1-4.529-1.272-6.831
				c-0.117-0.998,0.208-5.174-0.518-5.754c-1.712-1.371-8.579,2.622-10.393,3.234c0.357-0.121,2.192,9.351,2.193,10.307
				C339.489,243.445,339.052,245.663,338.362,247.657z"/>
			<path fill="#19034D" d="M355.731,89.153c0.005-0.084,0.01-0.169,0.015-0.252c0.114-2.193,0.283-4.601-1.16-6.419
				c-1.285-1.618-3.08-1.924-5.585-2.107c-2.886-0.211-6.571-1.051-9.404-0.248c-1.234,0.35-2.393,1.385-2.396,2.668
				c-0.003,1.372,1.3,2.435,2.634,2.76c2.336,0.569,5.85-0.929,6.843,2.259c0.578,1.857,0.725,3.595,2.828,4.403
				c1.274,0.489,2.72,0.38,4.015-0.054c0.649-0.217,1.301-0.537,1.696-1.096C355.604,90.519,355.689,89.828,355.731,89.153z"/>
			<g>
				<path fill="#4338CA" d="M352.772,77.7c0.014-0.09,0.058-0.172,0.13-0.245c0.238-0.327,0.682-0.487,1.109-0.036
					c0.195,0.207,0.193,0.453,0.09,0.648c-0.084,0.362-0.432,0.614-0.822,0.528C352.754,78.48,352.648,78.06,352.772,77.7z"/>
				<path fill="#4338CA" d="M338.465,77.445c0.556,0.119,1.104,0.279,1.65,0.437c0.9,0.26,1.803,0.515,2.706,0.765
					c0.303,0.083,0.613,0.174,0.928,0.194c0.291,0.02,0.376-0.073,0.593-0.254c0.418-0.352,0.82-0.737,1.307-0.996
					c0.39-0.208,0.798-0.381,1.218-0.519c0.839-0.274,1.727-0.404,2.61-0.373c0.158,0.005,0.317,0.016,0.476,0.032
					c1.926,0.196,3.761,1.172,4.999,2.66s1.865,3.47,1.708,5.399c-0.017,0.208-0.063,0.595-0.264,0.72
					c-0.177,0.11-0.376-0.014-0.563-0.063c-0.591-0.156-1.083-0.429-1.638-0.676c-0.476-0.211-0.952-0.422-1.429-0.631
					c-0.385-0.167-0.769-0.334-1.154-0.5c-3.598-1.542-7.241-2.958-10.933-4.259c-0.945-0.333-1.894-0.66-2.844-0.979
					c-0.318-0.107-1.185-0.417-0.911-0.927c0.102-0.19,0.365-0.204,0.579-0.182C337.827,77.323,338.147,77.377,338.465,77.445z"/>
			</g>
			<g>
				<path fill="#EC4899" d="M373.682,149.805c0.025-1.228-0.039-2.485-0.203-3.775c-4.445-0.222-8.881-0.627-13.293-1.213
					c0.26,0.034-0.625,1.707-0.767,1.857c-0.543,0.577-1.278,0.772-1.995,1.091c-1.849,0.823-3.665,1.773-5.327,2.934
					c-4.271,2.984-6.515,5.93-9.472,10.279c-2.917,4.29-4.155,9.159-6.253,13.752c-2.435,5.331-3.872,10.644-4.167,16.528
					c-0.02,0.39-0.035,0.78-0.047,1.17c-0.184,6.143,0.578,12.281,1.339,18.385c1.151,9.24,2.303,18.48,3.454,27.721
					c4.275-0.292,8.454-1.386,12.668-2.231c0.009-0.075,0.021-0.152,0.027-0.227c1.174-16.03,0.895-32.323,4.927-47.882
					c1.94-7.49,7.56-13.046,11.801-19.261C370.435,162.982,373.539,156.876,373.682,149.805z"/>
			</g>
			<path fill="#320699" d="M358.026,150.474c2.109,3.273,6.009,4.359,9.518,2.661c0.533-0.258,1.002,0.539,0.467,0.798
				c-3.706,1.794-7.809,0.861-10.282-2.292c-0.063-0.036-0.124-0.083-0.171-0.161c-0.109-0.18-0.22-0.359-0.329-0.539
				C356.917,150.429,357.706,149.976,358.026,150.474z"/>
			
				<linearGradient id="SVGID_10_" gradientUnits="userSpaceOnUse" x1="448.6533" y1="94.4102" x2="449.7389" y2="104.9268" gradientTransform="matrix(-1 0 0 1 799.1641 0)">
				<stop  offset="0.2654" style="stop-color:#201B59;stop-opacity:0.9148"/>
				<stop  offset="0.5554" style="stop-color:#FF735F;stop-opacity:0"/>
			</linearGradient>
			<path fill="url(#SVGID_10_)" d="M349.288,105.114c0.165,0.003-0.525-3.538-0.629-3.854c-0.216-0.66-0.496-1.297-0.845-1.897
				c-0.169-0.292-1.043-1.131-0.372-1.318c0.667-0.186,1.593-0.03,2.327-0.19c1.204-0.264,2.37-0.71,3.438-1.327
				c-0.4,2.505-1.206,4.944-2.376,7.195C350.529,104.307,350.034,105.127,349.288,105.114z"/>
			<path fill="#FF735F" d="M347.051,91.447l0.026-0.655c0.018-0.471,0.248-1.001,0.698-1.218c1.304-0.628,3.271-0.378,3.847,1.156
				c0.723,1.928-1.659,2.8-3.159,2.669c-0.733-0.064-1.447-0.603-1.411-1.411c0.003-0.074,0.016-0.148,0.031-0.223
				C347.06,91.663,347.047,91.558,347.051,91.447z"/>
			<linearGradient id="SVGID_11_" gradientUnits="userSpaceOnUse" x1="348.0752" y1="168.2988" x2="331.3325" y2="152.648">
				<stop  offset="0.2654" style="stop-color:#19034D;stop-opacity:0.9148"/>
				<stop  offset="0.5554" style="stop-color:#320699;stop-opacity:0"/>
			</linearGradient>
			<path opacity="0.6" fill="url(#SVGID_11_)" d="M340.492,164.82c1.01-2.2,2.455-4.166,3.735-6.22
				c1.279-2.055,2.418-4.271,2.702-6.675c-5.339,5.426-11.523,10.032-18.3,13.5C332.624,165.168,336.498,165.077,340.492,164.82z"/>
		</g>
		<g>
			<polygon fill="#19034D" points="344.152,90.492 331.846,92.357 331.846,86.763 344.152,88.627 			"/>
			<g>
				<path fill="#0C7B7D" d="M204.306,69.095v0.011c0.074,0.001,0.148,0.003,0.221,0.005L204.306,69.095z"/>
				<path fill="#0C7B7D" d="M209.156,108.454l-4.85,0.566C206.06,108.986,207.666,108.782,209.156,108.454z"/>
				<path fill="#0C7B7D" d="M209.156,108.454l123.7-14.443c2.137-0.25,3.747-2.059,3.747-4.21l0,0c0-2.13-1.581-3.93-3.694-4.203
					L206.791,69.277c10.922,1.304,15.416,10.994,15.416,21.117C222.207,99.697,217.952,106.519,209.156,108.454z"/>
			</g>
			<g>
				<circle opacity="0.34" fill="#0C3DF0" cx="203.747" cy="89.058" r="18.46"/>
				<circle fill="none" stroke="#19034D" stroke-width="6" stroke-miterlimit="10" cx="203.747" cy="89.058" r="18.46"/>
				<g>
					<path fill="#FFFFFF" d="M204.54,99.639c-2.54,0-5.068-0.855-7.209-2.483c-2.842-2.161-4.538-5.352-4.653-8.756
						c-0.083-2.43,0.638-4.894,1.998-6.924c0.357-0.532,1.093-0.646,1.585-0.235l0.061,0.051c0.428,0.358,0.498,0.976,0.188,1.44
						c-1.097,1.641-1.676,3.63-1.61,5.592c0.093,2.733,1.469,5.307,3.777,7.062c2.075,1.577,4.583,2.268,7.013,1.956
						c0.551-0.071,1.07,0.267,1.2,0.806l0.02,0.079c0.15,0.624-0.279,1.234-0.916,1.317C205.51,99.607,205.024,99.639,204.54,99.639
						z"/>
				</g>
			</g>
			<g>
				<defs>
					<polygon id="SVGID_12_" points="343.033,86.763 213.513,70.038 213.513,108.076 334.083,93.476 					"/>
				</defs>
				<clipPath id="SVGID_13_">
					<use xlink:href="#SVGID_12_"  overflow="visible"/>
				</clipPath>
				<g clip-path="url(#SVGID_13_)">
					<g>
						<path fill="#19034D" d="M231.716,108.076v-1.119c9.87,0,17.9-8.03,17.9-17.9c0-9.87-8.03-17.9-17.9-17.9v-1.119
							c10.488,0,19.019,8.532,19.019,19.019S242.204,108.076,231.716,108.076z"/>
					</g>
					<g>
						<path fill="#19034D" d="M260.244,104.72v-1.119c8.02,0,14.544-6.524,14.544-14.544c0-8.02-6.524-14.544-14.544-14.544v-1.119
							c8.637,0,15.663,7.026,15.663,15.663C275.907,97.694,268.881,104.72,260.244,104.72z"/>
					</g>
					<g>
						<path fill="#19034D" d="M311.708,98.007v-1.119c4.317,0,7.831-3.513,7.831-7.832s-3.514-7.831-7.831-7.831v-1.119
							c4.935,0,8.95,4.015,8.95,8.95S316.643,98.007,311.708,98.007z"/>
					</g>
					<g>
						<path fill="#19034D" d="M287.654,101.364v-1.119c6.169,0,11.188-5.019,11.188-11.188c0-6.169-5.019-11.188-11.188-11.188
							v-1.119c6.786,0,12.307,5.521,12.307,12.306C299.961,95.843,294.44,101.364,287.654,101.364z"/>
					</g>
				</g>
			</g>
		</g>
		<path fill="none" stroke="#19034D" stroke-width="0.5" stroke-miterlimit="10" d="M342.318,94.352
			c0.682-0.197,1.346-0.454,1.982-0.767"/>
		<path fill="#FF735F" d="M317.016,101.016c-0.271-0.724-0.646-1.43-0.905-1.952c-0.311-0.625-0.671-1.26-0.686-1.957
			c-0.021-1.017,0.092-1.923-0.1-2.937c-0.151-0.805-0.334-1.606-0.546-2.397c-0.078-0.292-0.906-3.435-1.533-2.829
			c-0.09,0.086-0.125,0.213-0.145,0.336c-0.174,1.069-0.049,2.138-0.159,3.21c-0.021,0.213-0.17,0.496-0.363,0.406
			c-0.398-0.186-0.751-1.804-0.935-2.218c-0.558-1.261-1.165-2.503-1.747-3.753c-0.387-0.831-1.004-1.801-1.915-1.708
			c-0.49,0.05-0.898,0.427-1.122,0.866c-0.224,0.439-0.295,0.938-0.363,1.426c-0.125,0.896-0.249,1.792-0.374,2.688
			c-0.075,0.541-0.15,1.088-0.092,1.631c0.053,0.485,0.21,0.951,0.367,1.413c0.566,1.667,0.947,3.472,2.031,4.873
			c1.059,1.369,2.688,2.499,3.535,4.008c0.469,0.692,0.713,1.495,1.282,2.167c0.396,0.466,0.921,0.907,1.531,0.888
			c1.036-0.032,2.223-1.068,2.509-2.049C317.464,102.522,317.294,101.759,317.016,101.016z"/>
		<g>
			<path fill="#7C3AED" d="M354.584,125.789c-8.65,2.308-15.834,2.126-24.716-0.769c-10.735-3.499-14.267-11.828-18.402-21.821
				c2.038-1.471,4.119-2.808,6.202-4.221c6.485,11.256,10.303,16.227,23.627,16.956c3.297,0.181,4.747-0.161,7.385-1.389
				c3.39-1.578,5.244-4.845,7.94-7.394c0.689-0.651,1.787-1.389,2.704-1.938c0.565-0.339,1.141-0.777,1.901-0.763
				s1.534,0.438,2.147,0.924c1.099,0.869,2.267,1.897,2.958,3.076c0.691,1.179,0.86,2.336,0.542,3.607
				c-1.031,4.113-3.433,7.206-6.463,10.054c-0.841,0.789-1.591,1.278-2.606,1.892C356.789,124.616,355.861,125.448,354.584,125.789z
				"/>
		</g>
		
			<linearGradient id="SVGID_14_" gradientUnits="userSpaceOnUse" x1="357.9648" y1="115.2754" x2="365.244" y2="145.8478" gradientTransform="matrix(0.9927 0.1204 -0.1204 0.9927 14.6748 -46.2422)">
			<stop  offset="0.2654" style="stop-color:#19034D;stop-opacity:0.9148"/>
			<stop  offset="0.5554" style="stop-color:#320699;stop-opacity:0"/>
		</linearGradient>
		<path opacity="0.6" fill="url(#SVGID_14_)" d="M360.52,123.808c-1.872,1.121-3.896,1.84-5.973,2.414
			c-1.938,0.832-4.159,1.634-5.919,1.411c-0.11,0.025-0.221,0.051-0.331,0.077c4.996,2.467,9.826,5.273,14.429,8.414
			c-0.034-0.023,0.809-2.113,1.909-4.779c0.759-4.201,1.438-8.417,2.067-12.641C364.983,120.8,362.615,122.553,360.52,123.808z"/>
	</g>
</g>
</svg>
