<?xml version="1.0" encoding="utf-8"?>
<!-- Generator: Adobe Illustrator 16.0.0, SVG Export Plug-In . SVG Version: 6.00 Build 0)  -->
<!DOCTYPE svg PUBLIC "-//W3C//DTD SVG 1.1//EN" "http://www.w3.org/Graphics/SVG/1.1/DTD/svg11.dtd">
<svg version="1.1" id="Layer_1" xmlns="http://www.w3.org/2000/svg" xmlns:xlink="http://www.w3.org/1999/xlink" x="0px" y="0px"
	 width="755.11px" height="610.859px" viewBox="87.986 49.067 755.11 610.859"
	 enable-background="new 87.986 49.067 755.11 610.859" xml:space="preserve">
<radialGradient id="SVGID_1_" cx="465.5408" cy="330.1033" r="370.8159" gradientUnits="userSpaceOnUse">
	<stop  offset="0" style="stop-color:#818CF8"/>
	<stop  offset="1" style="stop-color:#EC4899"/>
</radialGradient>
<polygon display="none" fill="url(#SVGID_1_)" points="57.832,659.926 465.54,0.281 873.249,659.926 "/>
<polygon fill="#818CF8" points="87.986,659.926 465.541,49.067 843.096,659.926 "/>
<polygon fill="#6D28D9" points="180.317,659.926 465.541,198.451 750.765,659.926 "/>
<g display="none">
	<g display="inline">
		<path fill="#F5F3FF" d="M434,833.529l21-141.934l400.945-48.461c0,0-269.193-75.309-403.917-112.996
			c0-45.414,3.366-103.402,3.366-148.537c-2.211,5.093-7.033,23.198-8.65,28.401c-9.848,31.688-19.794,63.344-29.584,95.047
			c-6.574,21.295-12.858,42.68-19.436,63.975c-9.791,31.703-19.729,63.361-29.598,95.041c-6.631,21.279-13.292,42.549-19.866,63.846
			c-10.411,33.729-20.851,67.445-31.007,101.248c-1.119,3.727-2.778,4.379-6.179,4.369c-39.659-0.096-79.32-0.061-118.982-0.061
			c-1.487,0-2.973,0-4.718,0c-1.566-5.619-2.965-11.105-4.625-16.514c-9.833-32.027-19.788-64.021-29.583-96.063
			c-8.275-27.068-16.375-54.189-24.578-81.279c-7.966-26.309-15.947-52.612-23.952-78.908c-8.337-27.384-16.697-54.765-25.072-82.14
			c-10.184-33.285-20.355-66.574-30.604-99.84c-5.579-18.108-11.302-36.172-16.96-54.256c0-0.667,0-1.333,0-2
			c35.161,0,105.481-0.066,105.481-0.066l118.032,404.084l119.209-404.099c0,0,62.324,0.076,93.485,0.094
			c1.557,0.001,3.11,0.177,5.187,0.304c-6.054,19.785-11.925,38.97-17.999,58.818C471.268,376.878,963.08,320,963.08,320v96.594
			l-405.44,36.859c0,0,371.738,101.607,400.883,109.709c3.578,0.994,4.569,2.457,4.56,6.055c-0.125,43.492,0,175.783,0,175.783
			L434,833.529z"/>
	</g>
</g>
<polygon fill="#4C1D95" points="256.691,659.926 465.541,322.018 674.392,659.926 "/>
</svg>
